<?xml version="1.0" standalone="no"?>
<!DOCTYPE svg PUBLIC "-//W3C//DTD SVG 20010904//EN"
 "http://www.w3.org/TR/2001/REC-SVG-20010904/DTD/svg10.dtd">
<svg version="1.0" xmlns="http://www.w3.org/2000/svg"
 width="400.000000pt" height="400.000000pt" viewBox="0 0 400.000000 400.000000"
 preserveAspectRatio="xMidYMid meet">

<g transform="translate(0.000000,400.000000) scale(0.100000,-0.100000)"
fill="#000000" stroke="none">
<path d="M1793 2974 c-46 -7 -108 -24 -139 -38 -31 -14 -61 -26 -66 -26 -14 0
-168 -102 -168 -112 0 -4 -5 -8 -12 -8 -6 0 -38 -27 -70 -60 l-59 -60 -458 0
-458 0 13 -47 c7 -27 20 -75 29 -108 21 -75 38 -232 27 -251 -12 -22 -109
-129 -205 -226 -57 -56 -87 -94 -83 -103 3 -8 11 -15 17 -15 13 0 152 -90 157
-102 2 -5 12 -8 21 -8 10 0 29 -9 43 -19 23 -18 65 -43 148 -86 19 -10 46 -25
60 -32 14 -8 45 -23 70 -34 25 -11 66 -31 91 -45 26 -13 52 -24 58 -24 6 0 34
-11 63 -23 29 -13 80 -33 113 -45 144 -50 189 -69 193 -83 3 -8 13 -26 24 -41
18 -27 17 -55 -3 -43 -5 3 -6 -1 -2 -10 4 -13 8 -14 14 -4 6 10 9 9 15 -4 4
-11 13 -16 21 -12 10 3 13 1 10 -9 -4 -10 -1 -13 7 -10 7 3 19 -3 27 -12 8
-10 9 -15 4 -12 -6 4 -11 -2 -11 -12 0 -15 3 -17 15 -7 12 10 14 9 8 -5 -4
-13 -2 -15 10 -11 12 5 14 3 8 -7 -5 -9 -4 -11 4 -6 17 11 40 -18 37 -48 -3
-22 -1 -24 11 -14 11 9 11 13 1 19 -7 5 -8 9 -2 9 5 0 25 -12 43 -27 19 -16
54 -40 80 -54 25 -14 45 -30 44 -37 -2 -6 4 -9 12 -6 8 4 15 1 15 -6 0 -6 4
-9 9 -5 11 6 142 -45 137 -54 -2 -3 17 -7 42 -8 26 0 95 -4 153 -8 126 -9 271
12 358 51 89 40 141 68 141 76 0 5 6 8 14 8 7 0 25 10 39 22 104 89 175 154
176 162 1 4 14 24 31 43 17 18 30 40 30 47 0 14 19 25 58 32 12 2 22 -1 22 -7
0 -6 8 -2 18 10 10 12 47 28 95 41 43 11 97 28 120 38 23 10 65 26 92 36 28
10 67 24 87 32 55 20 312 146 318 155 3 4 26 17 50 28 52 25 203 116 244 149
16 12 33 22 38 22 5 0 16 7 24 15 9 8 11 15 5 15 -6 0 -11 7 -11 15 0 8 -4 15
-10 15 -9 0 -50 35 -50 43 0 2 -19 24 -43 49 -24 26 -65 72 -93 104 -27 31
-59 67 -70 80 -25 26 -24 51 7 206 10 53 19 105 19 116 0 10 7 33 16 51 9 18
14 34 12 36 -2 3 -219 5 -482 5 -371 1 -475 3 -470 13 5 9 3 9 -7 0 -25 -24
-54 -12 -120 50 -80 75 -131 117 -141 117 -4 0 -27 14 -51 30 -25 17 -49 30
-55 30 -5 0 -35 12 -66 26 -106 49 -297 64 -463 38z m1812 -366 c-4 -13 -13
-43 -20 -68 -8 -25 -19 -93 -25 -151 -11 -101 -11 -107 10 -142 12 -20 26 -37
30 -37 5 0 12 -9 15 -20 4 -11 17 -31 29 -43 13 -12 58 -61 100 -110 68 -77
75 -89 62 -102 -8 -8 -21 -15 -30 -15 -8 0 -18 -5 -21 -11 -4 -6 -82 -47 -174
-91 -91 -44 -188 -91 -214 -104 -27 -13 -55 -24 -63 -24 -8 0 -37 -11 -64 -25
-26 -13 -66 -29 -87 -34 -21 -5 -72 -20 -113 -35 -99 -34 -224 -68 -280 -77
-25 -4 -103 -18 -175 -32 -339 -67 -882 -65 -1190 3 -49 11 -115 24 -145 29
-30 5 -84 19 -119 30 -35 12 -71 21 -80 21 -9 0 -48 12 -86 26 -39 14 -87 30
-108 35 -21 5 -61 21 -87 34 -27 14 -54 25 -60 25 -10 0 -60 22 -195 85 -27
13 -68 31 -90 41 -22 10 -46 24 -53 31 -7 7 -22 13 -32 13 -10 0 -22 5 -25 11
-4 6 -14 8 -22 5 -8 -3 -12 -2 -9 3 7 10 -37 41 -57 41 -8 0 -20 7 -28 16 -11
13 -7 20 24 48 20 18 37 35 37 39 0 3 17 23 38 44 96 97 172 203 172 241 -1
35 -45 249 -59 285 -6 16 -11 30 -11 33 0 2 723 4 1606 4 l1605 0 -6 -22z
m-2360 -1278 c3 -5 1 -10 -4 -10 -6 0 -11 5 -11 10 0 6 2 10 4 10 3 0 8 -4 11
-10z"/>
<path d="M470 2523 c10 -38 23 -109 29 -158 13 -99 9 -115 -39 -167 -30 -32
-38 -41 -119 -143 -35 -44 -67 -82 -72 -85 -4 -3 11 -15 34 -26 94 -47 173
-83 197 -89 14 -4 34 -13 45 -20 11 -6 43 -19 70 -28 28 -8 73 -24 100 -35 75
-31 399 -127 460 -137 17 -2 102 -18 190 -34 331 -61 813 -69 1170 -20 235 32
584 122 782 200 40 16 78 29 85 29 7 0 34 11 60 25 26 14 53 25 60 25 7 0 42
14 78 32 36 17 80 39 98 47 19 9 36 20 39 24 5 9 -82 126 -104 140 -7 4 -13
13 -13 19 0 6 -9 20 -21 32 -11 12 -36 41 -56 66 l-36 45 6 80 c3 44 15 114
26 155 11 41 21 78 21 83 0 4 -699 7 -1554 7 l-1553 0 17 -67z m650 -44 c24
-11 59 -31 77 -44 25 -20 34 -23 45 -12 43 39 124 77 163 77 53 0 42 -27 -22
-54 -29 -11 -68 -34 -87 -49 l-34 -28 20 -45 c15 -35 20 -67 19 -142 0 -88 -2
-101 -32 -159 -86 -169 -273 -253 -401 -179 -25 15 -51 33 -57 40 -10 11 -18
11 -49 0 -72 -26 -160 -13 -236 34 -40 25 -40 25 -19 42 36 29 133 44 195 30
29 -6 63 -16 75 -22 17 -8 28 -6 52 11 17 12 31 26 31 30 0 4 -15 16 -34 27
-51 29 -103 97 -111 145 -10 61 3 128 36 176 83 120 251 176 369 122z m940
-49 c0 -33 -64 -184 -103 -245 -45 -69 -80 -115 -130 -167 -53 -57 -117 -164
-117 -197 0 -18 4 -20 28 -15 35 9 141 101 186 162 83 113 208 182 252 138 18
-19 17 -54 -5 -91 -14 -23 -26 -31 -54 -33 -42 -4 -49 13 -17 41 11 9 20 26
20 37 0 19 -1 19 -24 5 -38 -25 -89 -88 -124 -154 -39 -72 -40 -114 -3 -119
13 -2 28 1 34 7 6 6 18 11 27 11 9 0 27 11 40 25 13 14 29 25 36 25 7 0 14 4
16 9 2 5 26 34 53 63 54 57 115 144 115 164 0 6 14 17 31 24 36 15 56 3 41
-26 -5 -11 -19 -37 -30 -59 -11 -22 -35 -67 -53 -100 -72 -133 -74 -146 -16
-102 39 29 147 159 147 176 0 6 11 21 25 33 14 12 25 27 25 35 0 7 14 19 30
28 17 9 30 19 30 24 0 9 77 41 99 41 24 0 61 -49 61 -81 0 -16 4 -29 8 -29 5
0 29 20 53 45 24 25 50 45 57 45 6 0 12 7 12 15 0 13 47 45 66 45 10 0 -5 -78
-21 -114 -9 -17 -10 -22 -3 -12 7 10 30 39 51 63 20 24 37 47 37 51 0 15 63
35 79 25 34 -21 20 -84 -55 -250 -8 -17 -14 -36 -14 -43 0 -17 23 -7 35 16 6
11 20 31 33 44 12 13 22 28 22 32 0 11 42 72 53 76 4 2 7 10 7 19 0 26 72 124
113 154 42 30 85 37 105 17 21 -21 14 -82 -13 -122 -14 -20 -25 -39 -25 -41 0
-8 -79 -85 -87 -85 -5 0 -20 -12 -35 -25 -30 -26 -36 -56 -15 -73 42 -34 167
104 244 271 26 57 53 75 53 37 0 -19 -55 -137 -70 -150 -3 -3 -18 -24 -33 -48
-62 -96 -158 -172 -216 -172 -26 0 -58 35 -66 72 l-7 30 -13 -25 c-7 -13 -22
-34 -34 -46 -11 -11 -21 -24 -21 -29 0 -15 -68 -44 -89 -37 -31 9 -28 70 7
147 16 35 33 77 39 93 6 17 14 38 18 48 11 27 -8 20 -27 -11 -10 -15 -38 -54
-63 -87 -24 -33 -49 -71 -55 -85 -6 -13 -14 -27 -18 -30 -13 -9 -42 -59 -42
-71 0 -18 -32 -38 -62 -39 -33 0 -34 5 -8 48 11 18 20 37 20 43 0 5 9 29 21
52 11 23 26 59 34 80 12 35 12 37 -3 25 -10 -8 -33 -22 -52 -32 -32 -16 -60
-54 -60 -79 0 -7 -56 -82 -85 -113 -5 -5 -28 -22 -50 -37 -71 -48 -155 -27
-155 38 0 24 -3 22 -67 -30 -72 -58 -114 -70 -131 -37 -10 18 -9 33 3 73 l7
24 -28 -26 c-87 -77 -161 -108 -226 -93 -23 4 -30 14 -41 51 -11 39 -15 43
-28 32 -62 -59 -99 -79 -143 -79 -41 0 -46 3 -52 25 -6 25 0 88 12 118 3 9
-14 -3 -38 -25 -47 -44 -131 -102 -163 -111 -45 -14 -62 32 -32 91 l15 31 -39
-26 c-21 -14 -39 -30 -39 -34 0 -5 -6 -9 -13 -9 -7 0 -30 -9 -51 -19 -67 -35
-109 3 -67 60 12 15 21 32 21 37 0 5 11 19 25 32 14 13 25 29 25 36 0 7 6 17
13 21 7 4 26 26 42 48 53 74 77 95 108 95 25 0 28 -3 22 -22 -4 -13 -15 -32
-25 -43 -11 -11 -29 -34 -42 -52 -13 -18 -45 -60 -71 -94 -27 -33 -46 -63 -44
-66 19 -18 220 151 279 235 16 24 88 44 88 25 0 -6 -25 -46 -55 -89 -30 -44
-66 -95 -79 -114 -13 -19 -31 -41 -40 -49 -9 -7 -16 -20 -16 -28 0 -11 6 -11
30 4 17 9 30 21 30 25 0 4 5 8 10 8 21 0 192 184 216 233 14 27 34 59 45 70
10 12 19 24 19 28 0 5 21 38 48 74 26 37 52 76 58 87 19 33 95 108 110 108 9
0 14 -11 14 -30z m364 -149 c32 -35 -3 -89 -49 -77 -32 8 -33 41 -3 73 26 28
30 28 52 4z"/>
<path d="M979 2441 c-43 -9 -139 -69 -139 -87 0 -7 -6 -17 -13 -21 -47 -30
-64 -146 -30 -204 10 -16 21 -29 25 -29 4 0 18 -11 32 -25 14 -14 31 -25 39
-25 8 0 40 30 73 67 32 36 68 76 79 87 11 11 25 31 32 43 10 20 8 24 -31 43
-30 14 -62 20 -111 20 -64 0 -68 1 -53 16 9 9 31 19 49 23 41 9 146 -13 170
-35 16 -14 20 -12 53 23 19 21 35 40 35 43 0 3 -17 17 -38 31 -42 29 -114 42
-172 30z"/>
<path d="M1201 2293 c-28 -33 -31 -43 -25 -73 19 -87 -9 -153 -88 -210 -35
-26 -50 -30 -105 -30 -55 0 -69 -4 -99 -27 -18 -16 -34 -31 -34 -34 0 -15 74
-41 116 -41 75 0 189 68 225 135 8 13 25 44 38 68 19 36 24 58 24 129 0 47 -4
94 -10 104 -9 16 -13 14 -42 -21z"/>
<path d="M1070 2128 c-30 -34 -63 -71 -73 -81 -10 -10 -17 -21 -14 -23 11 -11
80 10 108 33 31 27 55 94 41 118 -6 12 -20 2 -62 -47z"/>
<path d="M640 1943 c-57 -11 -41 -23 30 -23 48 0 71 3 64 10 -12 12 -62 19
-94 13z"/>
<path d="M1908 2227 c-16 -24 -28 -47 -28 -51 0 -3 -11 -24 -25 -46 -14 -22
-25 -42 -25 -45 0 -14 40 36 74 93 43 72 46 117 4 49z"/>
<path d="M3233 2238 c-43 -67 -70 -121 -77 -155 l-7 -32 33 32 c39 37 89 132
81 153 -6 17 -19 18 -30 2z"/>
<path d="M2577 2113 c-3 -5 5 -8 18 -8 13 0 21 3 18 8 -2 4 -10 7 -18 7 -8 0
-16 -3 -18 -7z"/>
<path d="M2520 2055 c0 -8 -3 -15 -7 -15 -17 0 -63 -94 -85 -173 -33 -119 97
-30 148 101 l17 43 -32 30 c-37 33 -41 35 -41 14z"/>
<path d="M2300 2969 c0 -5 5 -7 10 -4 6 3 10 8 10 11 0 2 -4 4 -10 4 -5 0 -10
-5 -10 -11z"/>
<path d="M2368 2923 c7 -3 16 -2 19 1 4 3 -2 6 -13 5 -11 0 -14 -3 -6 -6z"/>
<path d="M2470 2866 c0 -2 7 -7 16 -10 8 -3 12 -2 9 4 -6 10 -25 14 -25 6z"/>
<path d="M2547 2824 c4 -12 3 -15 -5 -10 -16 10 -15 1 1 -12 10 -8 13 -6 14 8
1 11 -2 22 -8 25 -5 4 -6 -2 -2 -11z"/>
<path d="M2583 2784 c0 -8 10 -22 21 -31 21 -18 21 -18 3 3 -13 16 -15 23 -6
26 9 3 9 6 -2 10 -10 4 -16 1 -16 -8z"/>
<path d="M1320 2775 c-7 -8 -9 -15 -5 -15 5 0 -2 -9 -15 -20 -13 -11 -19 -20
-13 -20 5 0 18 9 28 20 10 11 15 20 10 20 -4 0 -2 7 5 15 7 8 10 15 7 15 -2 0
-10 -7 -17 -15z"/>
<path d="M2654 2719 c-11 -18 14 -35 29 -20 10 10 9 11 -6 5 -13 -5 -16 -2
-11 10 7 18 -1 22 -12 5z"/>
<path d="M1152 1400 c14 -22 24 -19 15 5 -4 8 -11 15 -17 15 -6 0 -6 -7 2 -20z"/>
<path d="M2709 1313 c-13 -16 -12 -17 4 -4 9 7 17 15 17 17 0 8 -8 3 -21 -13z"/>
<path d="M2683 1285 c0 -8 4 -12 9 -9 5 3 6 10 3 15 -9 13 -12 11 -12 -6z"/>
<path d="M2619 1228 c0 -2 -2 -11 -4 -21 -3 -15 -1 -16 11 -6 7 6 11 15 8 20
-5 9 -13 12 -15 7z"/>
<path d="M1317 1189 c7 -7 15 -10 18 -7 3 3 -2 9 -12 12 -14 6 -15 5 -6 -5z"/>
<path d="M2545 1150 c-3 -6 1 -7 9 -4 18 7 21 14 7 14 -6 0 -13 -4 -16 -10z"/>
<path d="M1385 1141 c-3 -5 0 -13 6 -17 8 -4 9 -3 5 4 -9 16 7 15 22 0 8 -8
12 -8 12 -1 0 6 -7 14 -16 17 -20 8 -22 8 -29 -3z"/>
<path d="M1445 1096 c11 -7 27 -13 35 -13 8 0 24 -4 35 -7 11 -4 8 0 -8 9 -15
9 -32 13 -37 10 -5 -3 -11 -1 -15 5 -3 5 -11 10 -18 10 -6 0 -3 -6 8 -14z"/>
<path d="M1579 1028 c-12 -8 -12 -9 1 -5 8 2 20 -3 27 -12 10 -13 14 -14 25
-3 11 11 10 12 -6 6 -13 -5 -17 -4 -13 3 9 15 -17 23 -34 11z"/>
<path d="M1726 971 c-4 -5 3 -7 14 -4 23 6 26 13 6 13 -8 0 -17 -4 -20 -9z"/>
</g>
</svg>
